<svg width="152" height="150" viewBox="0 0 152 150" fill="none" xmlns="http://www.w3.org/2000/svg">
<rect width="152" height="150" rx="50" fill="black"/>
<path d="M126.503 34.099C127.046 33.8491 127.703 34.0848 127.847 34.6654C128.67 37.9714 128.28 44.249 121.504 49.599C129.337 53.2658 143.503 65.6992 137.503 86.099C131.503 106.499 111 108.599 101 108.599C99.6663 108.432 96.4995 108.599 92.4997 108.599L88.0837 107.949L91.9997 108.6L58.9997 108.599C54.9999 108.599 52.2784 108.432 50.9451 108.599C41.4996 108.599 20.4421 106.499 14.4421 86.099C8.44216 65.699 22.6088 53.2657 30.4421 49.599C23.6655 44.249 23.2762 37.9714 24.0984 34.6654C24.2428 34.085 24.8986 33.8494 25.4421 34.099C29.8806 36.1391 40.3763 39.2174 45.4421 40.599C61.1705 42.5171 72.0225 54.0939 75.9724 60.3314C79.9222 54.094 90.775 42.5171 106.504 40.599C111.57 39.2174 122.064 36.1391 126.503 34.099ZM65.4451 92.099L75.4451 104.599H76.4997L86.4997 92.099L75.9724 82.0463L65.4451 92.099Z" fill="white"/>
<circle cx="45" cy="76.5986" r="16" fill="black"/>
<circle cx="49" cy="71.5986" r="4" fill="white"/>
<circle cx="107" cy="76.5986" r="16" fill="black"/>
<circle cx="111" cy="71.5986" r="4" fill="white"/>
</svg>
